<?xml version="1.0" encoding="utf-8" standalone="no"?>
<!DOCTYPE svg PUBLIC "-//W3C//DTD SVG 1.1//EN"
  "http://www.w3.org/Graphics/SVG/1.1/DTD/svg11.dtd">
<svg xmlns:xlink="http://www.w3.org/1999/xlink" width="1059.874pt" height="516.4pt" viewBox="0 0 1059.874 516.4" xmlns="http://www.w3.org/2000/svg" version="1.1">
 <metadata>
  <rdf:RDF xmlns:dc="http://purl.org/dc/elements/1.1/" xmlns:cc="http://creativecommons.org/ns#" xmlns:rdf="http://www.w3.org/1999/02/22-rdf-syntax-ns#">
   <cc:Work>
    <dc:type rdf:resource="http://purl.org/dc/dcmitype/StillImage"/>
    <dc:date>2026-04-24T15:09:43.660091</dc:date>
    <dc:format>image/svg+xml</dc:format>
    <dc:creator>
     <cc:Agent>
      <dc:title>Matplotlib v3.9.2, https://matplotlib.org/</dc:title>
     </cc:Agent>
    </dc:creator>
   </cc:Work>
  </rdf:RDF>
 </metadata>
 <defs>
  <style type="text/css">*{stroke-linejoin: round; stroke-linecap: butt}</style>
 </defs>
 <g id="figure_1">
  <g id="patch_1">
   <path d="M -0 516.4 
L 1059.874 516.4 
L 1059.874 0 
L -0 0 
z
" style="fill: #ffffff"/>
  </g>
  <g id="axes_1">
   <g id="patch_2">
    <path d="M 34.749653 184.334286 
L 230.422827 184.334286 
Q 234.661235 184.334286 234.661235 180.031429 
L 234.661235 88.954286 
Q 234.661235 84.651429 230.422827 84.651429 
L 34.749653 84.651429 
Q 30.511245 84.651429 30.511245 88.954286 
L 30.511245 180.031429 
Q 30.511245 184.334286 34.749653 184.334286 
z
" clip-path="url(#p5e39724499)" style="fill: #eaf5fb; stroke: #0072b2; stroke-width: 1.4; stroke-linejoin: miter"/>
   </g>
   <g id="patch_3">
    <path d="M 34.749653 299.077143 
L 230.422827 299.077143 
Q 234.661235 299.077143 234.661235 294.774286 
L 234.661235 210.868571 
Q 234.661235 206.565714 230.422827 206.565714 
L 34.749653 206.565714 
Q 30.511245 206.565714 30.511245 210.868571 
L 30.511245 294.774286 
Q 30.511245 299.077143 34.749653 299.077143 
z
" clip-path="url(#p5e39724499)" style="fill: #eef7f2; stroke: #009e73; stroke-width: 1.4; stroke-linejoin: miter"/>
   </g>
   <g id="patch_4">
    <path d="M 34.749653 411.668571 
L 230.422827 411.668571 
Q 234.661235 411.668571 234.661235 407.365714 
L 234.661235 327.045714 
Q 234.661235 322.742857 230.422827 322.742857 
L 34.749653 322.742857 
Q 30.511245 322.742857 30.511245 327.045714 
L 30.511245 407.365714 
Q 30.511245 411.668571 34.749653 411.668571 
z
" clip-path="url(#p5e39724499)" style="fill: #fff8e5; stroke: #e69f00; stroke-width: 1.4; stroke-linejoin: miter"/>
   </g>
   <g id="patch_5">
    <path d="M 267.862099 270.391429 
L 428.215205 270.391429 
Q 432.453614 270.391429 432.453614 266.088571 
L 432.453614 172.86 
Q 432.453614 168.557143 428.215205 168.557143 
L 267.862099 168.557143 
Q 263.623691 168.557143 263.623691 172.86 
L 263.623691 266.088571 
Q 263.623691 270.391429 267.862099 270.391429 
z
" clip-path="url(#p5e39724499)" style="fill: #f7f7f7; stroke: #111111; stroke-width: 1.4; stroke-linejoin: miter"/>
   </g>
   <g id="patch_6">
    <path d="M 234.362904 137.941984 
Q 251.911955 164.189061 263.559961 191.601459 
" clip-path="url(#p5e39724499)" style="fill: none; stroke: #0072b2; stroke-width: 1.6; stroke-linecap: round"/>
    <path d="M 263.864014 186.691515 
L 263.559961 191.601459 
L 259.814437 188.412251 
z
" clip-path="url(#p5e39724499)" style="fill: #0072b2; stroke: #0072b2; stroke-width: 1.6; stroke-linecap: round"/>
   </g>
   <g id="patch_7">
    <path d="M 234.920876 251.368672 
Q 249.142344 242.064364 261.866868 233.739422 
" clip-path="url(#p5e39724499)" style="fill: none; stroke: #009e73; stroke-width: 1.6; stroke-linecap: round"/>
    <path d="M 256.980411 234.307347 
L 261.866868 233.739422 
L 259.389334 237.989343 
z
" clip-path="url(#p5e39724499)" style="fill: #009e73; stroke: #009e73; stroke-width: 1.6; stroke-linecap: round"/>
   </g>
   <g id="patch_8">
    <path d="M 234.238491 366.899876 
Q 261.084848 319.33878 268.073886 266.977084 
" clip-path="url(#p5e39724499)" style="fill: none; stroke-dasharray: 5.92,2.56; stroke-dashoffset: 0; stroke: #e69f00; stroke-width: 1.6; stroke-linecap: round"/>
    <path d="M 265.311093 271.047339 
L 268.073886 266.977084 
L 269.672414 271.629472 
z
" clip-path="url(#p5e39724499)" style="fill: #e69f00; stroke-dasharray: 5.92,2.56; stroke-dashoffset: 0; stroke: #e69f00; stroke-width: 1.6; stroke-linecap: round"/>
   </g>
   <g id="patch_9">
    <path d="M 465.654477 245.291429 
L 654.263638 245.291429 
Q 658.502046 245.291429 658.502046 240.988571 
L 658.502046 137.72 
Q 658.502046 133.417143 654.263638 133.417143 
L 465.654477 133.417143 
Q 461.416069 133.417143 461.416069 137.72 
L 461.416069 240.988571 
Q 461.416069 245.291429 465.654477 245.291429 
z
" clip-path="url(#p5e39724499)" style="fill: #f2eefa; stroke: #cc79a7; stroke-width: 1.4; stroke-linejoin: miter"/>
   </g>
   <g id="patch_10">
    <path d="M 465.654477 343.54 
L 654.263638 343.54 
Q 658.502046 343.54 658.502046 339.237143 
L 658.502046 276.845714 
Q 658.502046 272.542857 654.263638 272.542857 
L 465.654477 272.542857 
Q 461.416069 272.542857 461.416069 276.845714 
L 461.416069 339.237143 
Q 461.416069 343.54 465.654477 343.54 
z
" clip-path="url(#p5e39724499)" style="fill: #ffffff; stroke: #cc79a7; stroke-width: 1.4; stroke-linejoin: miter"/>
   </g>
   <g id="patch_11">
    <path d="M 432.494013 218.09734 
Q 446.934731 204.41439 460.076928 191.961823 
" clip-path="url(#p5e39724499)" style="fill: none; stroke: #6b7280; stroke-width: 1.6; stroke-linecap: round"/>
    <path d="M 455.369816 193.391193 
L 460.076928 191.961823 
L 458.396157 196.585134 
z
" clip-path="url(#p5e39724499)" style="fill: #6b7280; stroke: #6b7280; stroke-width: 1.6; stroke-linecap: round"/>
   </g>
   <g id="patch_12">
    <path d="M 560.312258 245.853622 
Q 560.312258 258.914649 560.312258 270.186822 
" clip-path="url(#p5e39724499)" style="fill: none; stroke: #cc79a7; stroke-width: 1.6; stroke-linecap: round"/>
    <path d="M 562.512258 265.786822 
L 560.312258 270.186822 
L 558.112258 265.786822 
z
" clip-path="url(#p5e39724499)" style="fill: #cc79a7; stroke: #cc79a7; stroke-width: 1.6; stroke-linecap: round"/>
   </g>
   <g id="patch_13">
    <path d="M 698.766923 162.82 
L 862.652036 162.82 
Q 866.890445 162.82 866.890445 158.517143 
L 866.890445 105.448571 
Q 866.890445 101.145714 862.652036 101.145714 
L 698.766923 101.145714 
Q 694.528515 101.145714 694.528515 105.448571 
L 694.528515 158.517143 
Q 694.528515 162.82 698.766923 162.82 
z
" clip-path="url(#p5e39724499)" style="fill: #eaf5fb; stroke: #0072b2; stroke-width: 1.4; stroke-linejoin: miter"/>
   </g>
   <g id="patch_14">
    <path d="M 698.766923 248.16 
L 862.652036 248.16 
Q 866.890445 248.16 866.890445 243.857143 
L 866.890445 181.465714 
Q 866.890445 177.162857 862.652036 177.162857 
L 698.766923 177.162857 
Q 694.528515 177.162857 694.528515 181.465714 
L 694.528515 243.857143 
Q 694.528515 248.16 698.766923 248.16 
z
" clip-path="url(#p5e39724499)" style="fill: #eef7f2; stroke: #009e73; stroke-width: 1.4; stroke-linejoin: miter"/>
   </g>
   <g id="patch_15">
    <path d="M 698.766923 349.994286 
L 862.652036 349.994286 
Q 866.890445 349.994286 866.890445 345.691429 
L 866.890445 272.542857 
Q 866.890445 268.24 862.652036 268.24 
L 698.766923 268.24 
Q 694.528515 268.24 694.528515 272.542857 
L 694.528515 345.691429 
Q 694.528515 349.994286 698.766923 349.994286 
z
" clip-path="url(#p5e39724499)" style="fill: #fff8e5; stroke: #e69f00; stroke-width: 1.4; stroke-linejoin: miter"/>
   </g>
   <g id="patch_16">
    <path d="M 719.252562 155.29 
C 720.282931 155.29 721.271238 154.874405 721.999819 154.134745 
C 722.7284 153.395086 723.13777 152.391751 723.13777 151.345714 
C 723.13777 150.299677 722.7284 149.296343 721.999819 148.556683 
C 721.271238 147.817023 720.282931 147.401429 719.252562 147.401429 
C 718.222193 147.401429 717.233887 147.817023 716.505306 148.556683 
C 715.776725 149.296343 715.367355 150.299677 715.367355 151.345714 
C 715.367355 152.391751 715.776725 153.395086 716.505306 154.134745 
C 717.233887 154.874405 718.222193 155.29 719.252562 155.29 
z
" clip-path="url(#p5e39724499)" style="fill: #0072b2; stroke: #0072b2; stroke-linejoin: miter"/>
   </g>
   <g id="patch_17">
    <path d="M 726.19706 151.345714 
Q 734.792853 151.345714 742.270613 151.345714 
" clip-path="url(#p5e39724499)" style="fill: none; stroke: #0072b2; stroke-linecap: round"/>
    <path d="M 739.870613 150.145714 
L 742.270613 151.345714 
L 739.870613 152.545714 
z
" clip-path="url(#p5e39724499)" style="fill: #0072b2; stroke: #0072b2; stroke-linecap: round"/>
   </g>
   <g id="patch_18">
    <path d="M 752.453426 155.29 
C 753.483795 155.29 754.472101 154.874405 755.200682 154.134745 
C 755.929263 153.395086 756.338633 152.391751 756.338633 151.345714 
C 756.338633 150.299677 755.929263 149.296343 755.200682 148.556683 
C 754.472101 147.817023 753.483795 147.401429 752.453426 147.401429 
C 751.423057 147.401429 750.43475 147.817023 749.706169 148.556683 
C 748.977588 149.296343 748.568218 150.299677 748.568218 151.345714 
C 748.568218 152.391751 748.977588 153.395086 749.706169 154.134745 
C 750.43475 154.874405 751.423057 155.29 752.453426 155.29 
z
" clip-path="url(#p5e39724499)" style="fill: #0072b2; stroke: #0072b2; stroke-linejoin: miter"/>
   </g>
   <g id="patch_19">
    <path d="M 759.397924 151.345714 
Q 767.993717 151.345714 775.471476 151.345714 
" clip-path="url(#p5e39724499)" style="fill: none; stroke: #0072b2; stroke-linecap: round"/>
    <path d="M 773.071476 150.145714 
L 775.471476 151.345714 
L 773.071476 152.545714 
z
" clip-path="url(#p5e39724499)" style="fill: #0072b2; stroke: #0072b2; stroke-linecap: round"/>
   </g>
   <g id="patch_20">
    <path d="M 785.654289 155.29 
C 786.684658 155.29 787.672965 154.874405 788.401546 154.134745 
C 789.130127 153.395086 789.539497 152.391751 789.539497 151.345714 
C 789.539497 150.299677 789.130127 149.296343 788.401546 148.556683 
C 787.672965 147.817023 786.684658 147.401429 785.654289 147.401429 
C 784.62392 147.401429 783.635614 147.817023 782.907033 148.556683 
C 782.178452 149.296343 781.769082 150.299677 781.769082 151.345714 
C 781.769082 152.391751 782.178452 153.395086 782.907033 154.134745 
C 783.635614 154.874405 784.62392 155.29 785.654289 155.29 
z
" clip-path="url(#p5e39724499)" style="fill: #0072b2; stroke: #0072b2; stroke-linejoin: miter"/>
   </g>
   <g id="patch_21">
    <path d="M 792.598787 151.345714 
Q 801.194581 151.345714 808.67234 151.345714 
" clip-path="url(#p5e39724499)" style="fill: none; stroke: #0072b2; stroke-linecap: round"/>
    <path d="M 806.27234 150.145714 
L 808.67234 151.345714 
L 806.27234 152.545714 
z
" clip-path="url(#p5e39724499)" style="fill: #0072b2; stroke: #0072b2; stroke-linecap: round"/>
   </g>
   <g id="patch_22">
    <path d="M 818.855153 155.29 
C 819.885522 155.29 820.873828 154.874405 821.602409 154.134745 
C 822.33099 153.395086 822.74036 152.391751 822.74036 151.345714 
C 822.74036 150.299677 822.33099 149.296343 821.602409 148.556683 
C 820.873828 147.817023 819.885522 147.401429 818.855153 147.401429 
C 817.824784 147.401429 816.836477 147.817023 816.107896 148.556683 
C 815.379315 149.296343 814.969945 150.299677 814.969945 151.345714 
C 814.969945 152.391751 815.379315 153.395086 816.107896 154.134745 
C 816.836477 154.874405 817.824784 155.29 818.855153 155.29 
z
" clip-path="url(#p5e39724499)" style="fill: #0072b2; stroke: #0072b2; stroke-linejoin: miter"/>
   </g>
   <g id="patch_23">
    <path d="M 720.665365 238.837143 
C 721.789404 238.837143 722.867556 238.383767 723.662372 237.576865 
C 724.457188 236.769964 724.903773 235.675417 724.903773 234.534286 
C 724.903773 233.393155 724.457188 232.298608 723.662372 231.491706 
C 722.867556 230.684805 721.789404 230.231429 720.665365 230.231429 
C 719.541326 230.231429 718.463173 230.684805 717.668358 231.491706 
C 716.873542 232.298608 716.426957 233.393155 716.426957 234.534286 
C 716.426957 235.675417 716.873542 236.769964 717.668358 237.576865 
C 718.463173 238.383767 719.541326 238.837143 720.665365 238.837143 
z
" clip-path="url(#p5e39724499)" style="fill: #009e73; stroke: #009e73; stroke-linejoin: miter"/>
   </g>
   <g id="patch_24">
    <path d="M 764.462249 220.334857 
C 765.436416 220.334857 766.370815 219.941931 767.059655 219.242616 
C 767.748495 218.543302 768.135536 217.594695 768.135536 216.605714 
C 768.135536 215.616734 767.748495 214.668127 767.059655 213.968812 
C 766.370815 213.269497 765.436416 212.876571 764.462249 212.876571 
C 763.488082 212.876571 762.553683 213.269497 761.864842 213.968812 
C 761.176002 214.668127 760.788962 215.616734 760.788962 216.605714 
C 760.788962 217.594695 761.176002 218.543302 761.864842 219.242616 
C 762.553683 219.941931 763.488082 220.334857 764.462249 220.334857 
z
" clip-path="url(#p5e39724499)" style="fill: #009e73; stroke: #009e73; stroke-linejoin: miter"/>
   </g>
   <g id="patch_25">
    <path d="M 727.389026 233.612908 
Q 742.918627 225.569161 757.455462 218.03963 
" clip-path="url(#p5e39724499)" style="fill: none; stroke: #009e73; stroke-linecap: round"/>
    <path d="M 754.772454 218.077909 
L 757.455462 218.03963 
L 755.87628 220.209004 
z
" clip-path="url(#p5e39724499)" style="fill: #009e73; stroke: #009e73; stroke-linecap: round"/>
   </g>
   <g id="patch_26">
    <path d="M 764.462249 238.263429 
C 765.436416 238.263429 766.370815 237.870503 767.059655 237.171188 
C 767.748495 236.471873 768.135536 235.523266 768.135536 234.534286 
C 768.135536 233.545305 767.748495 232.596698 767.059655 231.897384 
C 766.370815 231.198069 765.436416 230.805143 764.462249 230.805143 
C 763.488082 230.805143 762.553683 231.198069 761.864842 231.897384 
C 761.176002 232.596698 760.788962 233.545305 760.788962 234.534286 
C 760.788962 235.523266 761.176002 236.471873 761.864842 237.171188 
C 762.553683 237.870503 763.488082 238.263429 764.462249 238.263429 
z
" clip-path="url(#p5e39724499)" style="fill: #009e73; stroke: #009e73; stroke-linejoin: miter"/>
   </g>
   <g id="patch_27">
    <path d="M 727.608742 234.534286 
Q 742.914985 234.534286 757.103195 234.534286 
" clip-path="url(#p5e39724499)" style="fill: none; stroke: #009e73; stroke-linecap: round"/>
    <path d="M 754.703195 233.334286 
L 757.103195 234.534286 
L 754.703195 235.734286 
z
" clip-path="url(#p5e39724499)" style="fill: #009e73; stroke: #009e73; stroke-linecap: round"/>
   </g>
   <g id="patch_28">
    <path d="M 764.462249 256.192 
C 765.436416 256.192 766.370815 255.799074 767.059655 255.099759 
C 767.748495 254.400445 768.135536 253.451837 768.135536 252.462857 
C 768.135536 251.473877 767.748495 250.52527 767.059655 249.825955 
C 766.370815 249.12664 765.436416 248.733714 764.462249 248.733714 
C 763.488082 248.733714 762.553683 249.12664 761.864842 249.825955 
C 761.176002 250.52527 760.788962 251.473877 760.788962 252.462857 
C 760.788962 253.451837 761.176002 254.400445 761.864842 255.099759 
C 762.553683 255.799074 763.488082 256.192 764.462249 256.192 
z
" clip-path="url(#p5e39724499)" style="fill: #009e73; stroke: #009e73; stroke-linejoin: miter"/>
   </g>
   <g id="patch_29">
    <path d="M 727.389026 235.455664 
Q 742.918627 243.49941 757.455462 251.028942 
" clip-path="url(#p5e39724499)" style="fill: none; stroke: #009e73; stroke-linecap: round"/>
    <path d="M 755.87628 248.859567 
L 757.455462 251.028942 
L 754.772454 250.990662 
z
" clip-path="url(#p5e39724499)" style="fill: #009e73; stroke: #009e73; stroke-linecap: round"/>
   </g>
   <g id="patch_30">
    <path d="M 809.671935 238.837143 
C 810.795974 238.837143 811.874127 238.383767 812.668942 237.576865 
C 813.463758 236.769964 813.910343 235.675417 813.910343 234.534286 
C 813.910343 233.393155 813.463758 232.298608 812.668942 231.491706 
C 811.874127 230.684805 810.795974 230.231429 809.671935 230.231429 
C 808.547896 230.231429 807.469744 230.684805 806.674928 231.491706 
C 805.880112 232.298608 805.433527 233.393155 805.433527 234.534286 
C 805.433527 235.675417 805.880112 236.769964 806.674928 237.576865 
C 807.469744 238.383767 808.547896 238.837143 809.671935 238.837143 
z
" clip-path="url(#p5e39724499)" style="fill: #009e73; stroke: #009e73; stroke-linejoin: miter"/>
   </g>
   <g id="patch_31">
    <path d="M 770.481319 217.509584 
Q 786.360541 225.569924 801.242813 233.124209 
" clip-path="url(#p5e39724499)" style="fill: none; stroke: #009e73; stroke-linecap: round"/>
    <path d="M 799.64589 230.967861 
L 801.242813 233.124209 
L 798.55958 233.107938 
z
" clip-path="url(#p5e39724499)" style="fill: #009e73; stroke: #009e73; stroke-linecap: round"/>
   </g>
   <g id="patch_32">
    <path d="M 770.696896 234.534286 
Q 786.360153 234.534286 800.905376 234.534286 
" clip-path="url(#p5e39724499)" style="fill: none; stroke: #009e73; stroke-linecap: round"/>
    <path d="M 798.505376 233.334286 
L 800.905376 234.534286 
L 798.505376 235.734286 
z
" clip-path="url(#p5e39724499)" style="fill: #009e73; stroke: #009e73; stroke-linecap: round"/>
   </g>
   <g id="patch_33">
    <path d="M 770.481319 251.558988 
Q 786.360541 243.498647 801.242813 235.944362 
" clip-path="url(#p5e39724499)" style="fill: none; stroke: #009e73; stroke-linecap: round"/>
    <path d="M 798.55958 235.960633 
L 801.242813 235.944362 
L 799.64589 238.10071 
z
" clip-path="url(#p5e39724499)" style="fill: #009e73; stroke: #009e73; stroke-linecap: round"/>
   </g>
   <g id="patch_34">
    <path d="M 722.078168 336.01 
C 723.108537 336.01 724.096843 335.594405 724.825424 334.854745 
C 725.554005 334.115086 725.963375 333.111751 725.963375 332.065714 
C 725.963375 331.019677 725.554005 330.016343 724.825424 329.276683 
C 724.096843 328.537023 723.108537 328.121429 722.078168 328.121429 
C 721.047799 328.121429 720.059492 328.537023 719.330911 329.276683 
C 718.60233 330.016343 718.19296 331.019677 718.19296 332.065714 
C 718.19296 333.111751 718.60233 334.115086 719.330911 334.854745 
C 720.059492 335.594405 721.047799 336.01 722.078168 336.01 
z
" clip-path="url(#p5e39724499)" style="fill: #e69f00; stroke: #e69f00; stroke-linejoin: miter"/>
   </g>
   <g id="patch_35">
    <path d="M 754.57263 318.081429 
C 755.602999 318.081429 756.591305 317.665834 757.319886 316.926174 
C 758.048467 316.186514 758.457837 315.18318 758.457837 314.137143 
C 758.457837 313.091106 758.048467 312.087771 757.319886 311.348112 
C 756.591305 310.608452 755.602999 310.192857 754.57263 310.192857 
C 753.542261 310.192857 752.553954 310.608452 751.825373 311.348112 
C 751.096792 312.087771 750.687422 313.091106 750.687422 314.137143 
C 750.687422 315.18318 751.096792 316.186514 751.825373 316.926174 
C 752.553954 317.665834 753.542261 318.081429 754.57263 318.081429 
z
" clip-path="url(#p5e39724499)" style="fill: #e69f00; stroke: #e69f00; stroke-linejoin: miter"/>
   </g>
   <g id="patch_36">
    <path d="M 787.773493 337.444286 
C 788.803862 337.444286 789.792169 337.028691 790.52075 336.289031 
C 791.249331 335.549371 791.658701 334.546037 791.658701 333.5 
C 791.658701 332.453963 791.249331 331.450629 790.52075 330.710969 
C 789.792169 329.971309 788.803862 329.555714 787.773493 329.555714 
C 786.743124 329.555714 785.754818 329.971309 785.026237 330.710969 
C 784.297656 331.450629 783.888286 332.453963 783.888286 333.5 
C 783.888286 334.546037 784.297656 335.549371 785.026237 336.289031 
C 785.754818 337.028691 786.743124 337.444286 787.773493 337.444286 
z
" clip-path="url(#p5e39724499)" style="fill: #e69f00; stroke: #e69f00; stroke-linejoin: miter"/>
   </g>
   <g id="patch_37">
    <path d="M 818.148751 310.91 
C 819.17912 310.91 820.167427 310.494405 820.896008 309.754745 
C 821.624589 309.015086 822.033959 308.011751 822.033959 306.965714 
C 822.033959 305.919677 821.624589 304.916343 820.896008 304.176683 
C 820.167427 303.437023 819.17912 303.021429 818.148751 303.021429 
C 817.118382 303.021429 816.130076 303.437023 815.401495 304.176683 
C 814.672914 304.916343 814.263544 305.919677 814.263544 306.965714 
C 814.263544 308.011751 814.672914 309.015086 815.401495 309.754745 
C 816.130076 310.494405 817.118382 310.91 818.148751 310.91 
z
" clip-path="url(#p5e39724499)" style="fill: #e69f00; stroke: #e69f00; stroke-linejoin: miter"/>
   </g>
   <g id="patch_38">
    <path d="M 832.276778 344.615714 
C 833.307147 344.615714 834.295454 344.200119 835.024035 343.46046 
C 835.752616 342.7208 836.161986 341.717465 836.161986 340.671429 
C 836.161986 339.625392 835.752616 338.622057 835.024035 337.882397 
C 834.295454 337.142738 833.307147 336.727143 832.276778 336.727143 
C 831.246409 336.727143 830.258103 337.142738 829.529522 337.882397 
C 828.800941 338.622057 828.391571 339.625392 828.391571 340.671429 
C 828.391571 341.717465 828.800941 342.7208 829.529522 343.46046 
C 830.258103 344.200119 831.246409 344.615714 832.276778 344.615714 
z
" clip-path="url(#p5e39724499)" style="fill: #e69f00; stroke: #e69f00; stroke-linejoin: miter"/>
   </g>
   <g id="patch_39">
    <path d="M 723.910438 331.269745 
Q 739.128649 324.562341 752.083817 315.827966 
" clip-path="url(#p5e39724499)" style="fill: none; stroke: #e69f00; stroke-width: 0.9; stroke-linecap: round"/>
    <path d="M 749.866488 316.116844 
L 752.083817 315.827966 
L 750.984522 317.775157 
z
" clip-path="url(#p5e39724499)" style="fill: #e69f00; stroke: #e69f00; stroke-width: 0.9; stroke-linecap: round"/>
   </g>
   <g id="patch_40">
    <path d="M 756.199844 315.304995 
Q 770.302447 325.316928 785.049866 332.233863 
" clip-path="url(#p5e39724499)" style="fill: none; stroke: #e69f00; stroke-width: 0.9; stroke-linecap: round"/>
    <path d="M 783.663781 330.479222 
L 785.049866 332.233863 
L 782.814502 332.289947 
z
" clip-path="url(#p5e39724499)" style="fill: #e69f00; stroke: #e69f00; stroke-width: 0.9; stroke-linecap: round"/>
   </g>
   <g id="patch_41">
    <path d="M 724.066782 332.302461 
Q 754.861338 335.874734 784.778837 333.721529 
" clip-path="url(#p5e39724499)" style="fill: none; stroke: #d55e00; stroke-width: 0.9; stroke-linecap: round"/>
    <path d="M 782.712211 332.86768 
L 784.778837 333.721529 
L 782.855783 334.86252 
z
" clip-path="url(#p5e39724499)" style="fill: #d55e00; stroke: #d55e00; stroke-width: 0.9; stroke-linecap: round"/>
   </g>
   <g id="patch_42">
    <path d="M 789.399896 332.330932 
Q 804.165163 321.607405 816.079874 309.144004 
" clip-path="url(#p5e39724499)" style="fill: none; stroke: #e69f00; stroke-width: 0.9; stroke-linecap: round"/>
    <path d="M 813.975002 309.898665 
L 816.079874 309.144004 
L 815.420679 311.280699 
z
" clip-path="url(#p5e39724499)" style="fill: #e69f00; stroke: #e69f00; stroke-width: 0.9; stroke-linecap: round"/>
   </g>
   <g id="patch_43">
    <path d="M 756.56933 314.105724 
Q 786.694483 313.538919 815.203984 307.586831 
" clip-path="url(#p5e39724499)" style="fill: none; stroke: #e69f00; stroke-width: 0.9; stroke-linecap: round"/>
    <path d="M 813.041827 307.016675 
L 815.203984 307.586831 
L 813.450565 308.974463 
z
" clip-path="url(#p5e39724499)" style="fill: #e69f00; stroke: #e69f00; stroke-width: 0.9; stroke-linecap: round"/>
   </g>
   <g id="patch_44">
    <path d="M 789.707103 334.004184 
Q 809.696018 339.122955 829.277183 340.473343 
" clip-path="url(#p5e39724499)" style="fill: none; stroke: #d55e00; stroke-width: 0.9; stroke-linecap: round"/>
    <path d="M 827.350723 339.338112 
L 829.277183 340.473343 
L 827.213122 341.333373 
z
" clip-path="url(#p5e39724499)" style="fill: #d55e00; stroke: #d55e00; stroke-width: 0.9; stroke-linecap: round"/>
   </g>
   <g id="patch_45">
    <path d="M 818.745772 308.877765 
Q 823.701231 324.451682 830.861807 338.014561 
" clip-path="url(#p5e39724499)" style="fill: none; stroke: #e69f00; stroke-width: 0.9; stroke-linecap: round"/>
    <path d="M 830.812367 335.779039 
L 830.861807 338.014561 
L 829.043726 336.7128 
z
" clip-path="url(#p5e39724499)" style="fill: #e69f00; stroke: #e69f00; stroke-width: 0.9; stroke-linecap: round"/>
   </g>
   <g id="patch_46">
    <path d="M 659.085914 308.4 
Q 676.512599 308.4 692.15043 308.4 
" clip-path="url(#p5e39724499)" style="fill: none; stroke: #cc79a7; stroke-width: 1.6; stroke-linecap: round"/>
    <path d="M 687.75043 306.2 
L 692.15043 308.4 
L 687.75043 310.6 
z
" clip-path="url(#p5e39724499)" style="fill: #cc79a7; stroke: #cc79a7; stroke-width: 1.6; stroke-linecap: round"/>
   </g>
   <g id="patch_47">
    <path d="M 657.210716 306.406747 
Q 660.604758 255.768836 693.3967 219.409117 
" clip-path="url(#p5e39724499)" style="fill: none; stroke: #cc79a7; stroke-width: 1.6; stroke-linecap: round"/>
    <path d="M 688.816148 221.203147 
L 693.3967 219.409117 
L 692.083593 224.149976 
z
" clip-path="url(#p5e39724499)" style="fill: #cc79a7; stroke: #cc79a7; stroke-width: 1.6; stroke-linecap: round"/>
   </g>
   <g id="patch_48">
    <path d="M 656.548251 306.477299 
Q 629.80317 209.90648 693.481814 134.868371 
" clip-path="url(#p5e39724499)" style="fill: none; stroke: #cc79a7; stroke-width: 1.6; stroke-linecap: round"/>
    <path d="M 688.957444 136.799712 
L 693.481814 134.868371 
L 692.312265 139.646671 
z
" clip-path="url(#p5e39724499)" style="fill: #cc79a7; stroke: #cc79a7; stroke-width: 1.6; stroke-linecap: round"/>
   </g>
   <g id="patch_49">
    <path d="M 903.623315 269.674286 
L 1025.124347 269.674286 
Q 1029.362755 269.674286 1029.362755 265.371429 
L 1029.362755 183.617143 
Q 1029.362755 179.314286 1025.124347 179.314286 
L 903.623315 179.314286 
Q 899.384907 179.314286 899.384907 183.617143 
L 899.384907 265.371429 
Q 899.384907 269.674286 903.623315 269.674286 
z
" clip-path="url(#p5e39724499)" style="fill: #ffffff; stroke: #111111; stroke-width: 1.4; stroke-linejoin: miter"/>
   </g>
   <g id="patch_50">
    <path d="M 903.623315 377.245714 
L 1025.124347 377.245714 
Q 1029.362755 377.245714 1029.362755 372.942857 
L 1029.362755 303.38 
Q 1029.362755 299.077143 1025.124347 299.077143 
L 903.623315 299.077143 
Q 899.384907 299.077143 899.384907 303.38 
L 899.384907 372.942857 
Q 899.384907 377.245714 903.623315 377.245714 
z
" clip-path="url(#p5e39724499)" style="fill: #eaf5fb; stroke: #0072b2; stroke-width: 1.4; stroke-linejoin: miter"/>
   </g>
   <g id="patch_51">
    <path d="M 866.824718 133.464008 
Q 894.759766 164.593389 900.287946 204.247254 
" clip-path="url(#p5e39724499)" style="fill: none; stroke: #6b7280; stroke-width: 1.6; stroke-linecap: round"/>
    <path d="M 901.859341 199.585632 
L 900.287946 204.247254 
L 897.501486 200.193165 
z
" clip-path="url(#p5e39724499)" style="fill: #6b7280; stroke: #6b7280; stroke-width: 1.6; stroke-linecap: round"/>
   </g>
   <g id="patch_52">
    <path d="M 867.465258 216.847855 
Q 883.140706 218.757512 897.040428 220.450842 
" clip-path="url(#p5e39724499)" style="fill: none; stroke: #6b7280; stroke-width: 1.6; stroke-linecap: round"/>
    <path d="M 892.938767 217.734893 
L 897.040428 220.450842 
L 892.406672 222.102601 
z
" clip-path="url(#p5e39724499)" style="fill: #6b7280; stroke: #6b7280; stroke-width: 1.6; stroke-linecap: round"/>
   </g>
   <g id="patch_53">
    <path d="M 866.87091 308.401943 
Q 891.613072 282.612178 899.887815 249.685806 
" clip-path="url(#p5e39724499)" style="fill: none; stroke: #6b7280; stroke-width: 1.6; stroke-linecap: round"/>
    <path d="M 896.681742 253.416905 
L 899.887815 249.685806 
L 900.94905 254.489324 
z
" clip-path="url(#p5e39724499)" style="fill: #6b7280; stroke: #6b7280; stroke-width: 1.6; stroke-linecap: round"/>
   </g>
   <g id="patch_54">
    <path d="M 964.373831 270.237267 
Q 964.373831 284.374695 964.373831 296.723267 
" clip-path="url(#p5e39724499)" style="fill: none; stroke: #0072b2; stroke-width: 1.6; stroke-linecap: round"/>
    <path d="M 966.573831 292.323267 
L 964.373831 296.723267 
L 962.173831 292.323267 
z
" clip-path="url(#p5e39724499)" style="fill: #0072b2; stroke: #0072b2; stroke-width: 1.6; stroke-linecap: round"/>
   </g>
   <g id="patch_55">
    <path d="M 267.862099 478.362857 
L 1025.124347 478.362857 
Q 1029.362755 478.362857 1029.362755 474.06 
L 1029.362755 415.254286 
Q 1029.362755 410.951429 1025.124347 410.951429 
L 267.862099 410.951429 
Q 263.623691 410.951429 263.623691 415.254286 
L 263.623691 474.06 
Q 263.623691 478.362857 267.862099 478.362857 
z
" clip-path="url(#p5e39724499)" style="fill: #f9fafb; stroke: #d1d5db; stroke-width: 1.4; stroke-linejoin: miter"/>
   </g>
   <g id="patch_56">
    <path d="M 964.373831 377.80712 
Q 964.373831 394.098146 964.373831 408.600318 
" clip-path="url(#p5e39724499)" style="fill: none; stroke-dasharray: 5.92,2.56; stroke-dashoffset: 0; stroke: #6b7280; stroke-width: 1.6; stroke-linecap: round"/>
    <path d="M 966.173831 405.000318 
L 964.373831 408.600318 
L 962.573831 405.000318 
z
" clip-path="url(#p5e39724499)" style="fill: #6b7280; stroke-dasharray: 5.92,2.56; stroke-dashoffset: 0; stroke: #6b7280; stroke-width: 1.6; stroke-linecap: round"/>
   </g>
   <g id="patch_57">
    <path d="M 572.321081 410.382494 
Q 572.321081 377.242169 572.321081 345.890698 
" clip-path="url(#p5e39724499)" style="fill: none; stroke-dasharray: 5.92,2.56; stroke-dashoffset: 0; stroke: #6b7280; stroke-width: 1.6; stroke-linecap: round"/>
    <path d="M 570.521081 349.490698 
L 572.321081 345.890698 
L 574.121081 349.490698 
z
" clip-path="url(#p5e39724499)" style="fill: #6b7280; stroke-dasharray: 5.92,2.56; stroke-dashoffset: 0; stroke: #6b7280; stroke-width: 1.6; stroke-linecap: round"/>
   </g>
   <g id="text_1">
    <text style="fill: #111111; font: 700 16px 'DejaVu Sans'; text-anchor: start" x="31.924047" y="39.4375" transform="rotate(-0 31.924047 39.4375)">TopoRec-Family: Adaptive Reasoning Topology for Candidate-Aware LLM Recommendation</text>
   </g>
   <g id="text_2">
    <text style="fill: #6b7280; font: 9.6px 'DejaVu Sans'; text-anchor: start" x="31.924047" y="58.957357" transform="rotate(-0 31.924047 58.957357)">A minimal-input reranking protocol: topology changes the organization of evidence, not the available information.</text>
   </g>
   <g id="text_3">
    <!-- User History  $H_u$ -->
    <g style="fill: #0072b2" transform="translate(40.400864 109.842857)">
     <text>
      <tspan style="font: 700 10.5px 'DejaVu Sans'" x="0 8.526123 14.775879 21.897217 27.075439 30.730957 39.518555 43.117676 49.367432 54.386719 61.600342 66.778564 73.623047 77.278564" y="-0.015625">User History  </tspan>
      <tspan style="font: oblique 10.5px 'DejaVu Sans'" x="80.934082" y="-0.015625">H</tspan>
      <tspan style="font: oblique 7.35px 'DejaVu Sans'" x="88.82959" y="1.7093749999999996">u</tspan>
     </text>
    </g>
   </g>
   <g id="text_4">
    <text style="fill: #111111; font: 8.8px 'DejaVu Sans'" transform="translate(40.400864 130.063768)">recent interacted items</text>
    <text style="fill: #111111; font: 8.8px 'DejaVu Sans'" transform="translate(40.400864 140.118442)">item titles; optional ratings/time</text>
   </g>
   <g id="text_5">
    <!-- Base Retriever  $R$ -->
    <g style="fill: #009e73" transform="translate(40.400864 231.755502)">
     <text>
      <tspan style="font: 700 10.5px 'DejaVu Sans'" x="0 8.003174 15.088623 21.338379 28.459717 32.115234 40.200439 47.321777 52.341064 57.519287 61.118408 68.239746 75.084229 82.205566 87.383789 91.039307" y="-0.015625">Base Retriever  </tspan>
      <tspan style="font: oblique 10.5px 'DejaVu Sans'" x="94.694824" y="-0.015625">R</tspan>
     </text>
    </g>
   </g>
   <g id="text_6">
    <text style="fill: #111111; font: 8.8px 'DejaVu Sans'" transform="translate(40.400864 251.978054)">SASRec / CRM / LightGCN</text>
    <!-- full catalog  $→$  top-K items -->
    <g style="fill: #111111" transform="translate(40.400864 262.034419)">
     <text>
      <tspan style="font: 8.8px 'DejaVu Sans'" x="0 3.096939 8.672302 11.116348 13.560394 16.356659 21.193222 26.583878 30.033035 35.423691 37.867737 43.249802 48.833755 51.63002 54.426285 61.797104 64.593369 67.389633 70.838791 76.220856 81.80481 84.979065 90.747711 93.543976 95.988022 99.43718 104.849319 113.418533" y="-0.3125">full catalog  →  top-K items</tspan>
     </text>
    </g>
   </g>
   <g id="text_7">
    <text style="fill: #a66a00; font: 700 10.5px 'DejaVu Sans'; text-anchor: start" x="40.400864" y="347.932645" transform="rotate(-0 40.400864 347.932645)">Optional Offline Text</text>
   </g>
   <g id="text_8">
    <!-- user profile  $P_u$ -->
    <g style="fill: #111111" transform="translate(40.400864 368.156571)">
     <text>
      <tspan style="font: 8.8px 'DejaVu Sans'" x="0 5.575363 10.158493 15.570633 19.187317 21.983582 27.567535 31.184219 36.566284 39.663223 42.107269 44.551315 49.963455 52.75972" y="-0.3125">user profile  </tspan>
      <tspan style="font: oblique 8.8px 'DejaVu Sans'" x="55.555984" y="-0.3125">P</tspan>
      <tspan style="font: oblique 6.16px 'DejaVu Sans'" x="60.860733" y="1.1312499999999996">u</tspan>
     </text>
    </g>
    <!-- item description/perception  $D_i$ -->
    <g style="fill: #111111" transform="translate(40.400864 378.230811)">
     <text>
      <tspan style="font: 8.8px 'DejaVu Sans'" x="0 2.444046 5.893204 11.305344 19.874557 22.670822 28.254776 33.666916 38.250046 43.086609 46.703293 49.147339 54.731293 58.18045 60.624496 66.006561 71.581924 74.545715 80.129669 85.541809 89.158493 93.995056 99.407196 104.99115 108.440308 110.884354 116.266418 121.841782 124.638046" y="-0.3125">item description/perception  </tspan>
      <tspan style="font: oblique 8.8px 'DejaVu Sans'" x="127.434311" y="-0.3125">D</tspan>
      <tspan style="font: oblique 6.16px 'DejaVu Sans'" x="134.208069" y="1.1312499999999996">i</tspan>
     </text>
    </g>
   </g>
   <g id="text_9">
    <!-- Candidate Pool  $C_u$ -->
    <g style="fill: #111111" transform="translate(273.513309 193.746931)">
     <text>
      <tspan style="font: 700 10.5px 'DejaVu Sans'" x="0 7.705811 14.79126 22.266357 29.782471 33.381592 40.897705 47.983154 53.002441 60.123779 63.779297 71.474854 78.688477 85.9021 89.501221 93.156738" y="-0.015625">Candidate Pool  </tspan>
      <tspan style="font: oblique 10.5px 'DejaVu Sans'" x="96.812256" y="-0.015625">C</tspan>
      <tspan style="font: oblique 7.35px 'DejaVu Sans'" x="104.143799" y="1.7093749999999996">u</tspan>
     </text>
    </g>
   </g>
   <g id="text_10">
    <!-- $C_u = R_K(H_u)$ -->
    <g style="fill: #111111" transform="translate(273.513309 213.437592)">
     <text>
      <tspan style="font: oblique 8.1px 'DejaVu Sans'" x="0 19.398697 32.116493" y="-0.859375">CRH</tspan>
      <tspan style="font: oblique 5.67px 'DejaVu Sans'" x="5.651398 25.02243 38.202614" y="0.46718749999999964">uKu</tspan>
      <tspan style="font: 8.1px 'DejaVu Sans'" x="11.040161 28.958824 42.014519" y="-0.859375">=()</tspan>
     </text>
    </g>
    <!-- or $\{y_u\}+K-1$ retrieved hard negatives -->
    <g style="fill: #111111" transform="translate(273.513309 222.694018)">
     <text>
      <tspan style="font: 8.1px 'DejaVu Sans'" x="0 4.951889 8.279495 10.852264 24.603516 31.329865 46.57283 54.931366 60.080856 62.653625 65.981232 70.960785 74.134262 77.461868 79.710571 84.690125 89.47998 94.459534 99.597168 102.169937 107.299667 112.25946 115.587067 120.724701 123.29747 128.4272 133.406754 138.544388 143.504181 146.677658 148.926361 153.716217 158.69577" y="-0.84375">or {}+−1 retrieved hard negatives</tspan>
      <tspan style="font: oblique 8.1px 'DejaVu Sans'" x="16.001755 39.6884" y="-0.84375">yK</tspan>
      <tspan style="font: oblique 5.67px 'DejaVu Sans'" x="20.791611" y="0.48281249999999964">u</tspan>
     </text>
    </g>
    <!-- item text  $X_C$ -->
    <g style="fill: #111111" transform="translate(273.513309 231.965342)">
     <text>
      <tspan style="font: 8.1px 'DejaVu Sans'" x="0 2.248703 5.42218 10.401733 18.286026 20.858795 24.032272 29.011826 33.801682 36.975159 39.547928" y="-0.84375">item text  </tspan>
      <tspan style="font: oblique 8.1px 'DejaVu Sans'" x="42.120697" y="-0.84375">X</tspan>
      <tspan style="font: oblique 5.67px 'DejaVu Sans'" x="47.66539" y="0.48281249999999964">C</tspan>
     </text>
    </g>
   </g>
   <g id="text_11">
    <text style="fill: #6b7280; font: 8.5px 'DejaVu Sans'; text-anchor: middle" x="132.939441" y="444.851183" transform="rotate(-0 132.939441 444.851183)">minimal online inputs</text>
   </g>
   <g id="text_12">
    <!-- Routing Signals  $z_u$ -->
    <g style="fill: #cc79a7" transform="translate(471.305688 158.608571)">
     <text>
      <tspan style="font: 700 10.5px 'DejaVu Sans'" x="0 8.085205 15.298828 22.773926 27.793213 31.392334 38.867432 46.383545 50.039062 57.601318 61.200439 68.716553 76.19165 83.2771 86.876221 93.125977 96.781494" y="-0.015625">Routing Signals  </tspan>
      <tspan style="font: oblique 10.5px 'DejaVu Sans'" x="100.437012" y="-0.015625">z</tspan>
      <tspan style="font: oblique 7.35px 'DejaVu Sans'" x="105.948486" y="1.7093749999999996">u</tspan>
     </text>
    </g>
   </g>
   <g id="text_13">
    <text style="fill: #111111; font: 8px 'DejaVu Sans'" transform="translate(471.305688 178.221607)">uncertainty: score entropy / margin</text>
    <text style="fill: #111111; font: 8px 'DejaVu Sans'" transform="translate(471.305688 187.36222)">conflict: short-vs-long or score disagreement</text>
    <text style="fill: #111111; font: 8px 'DejaVu Sans'" transform="translate(471.305688 196.502832)">noise: sparse, repeated, low-rated history</text>
    <text style="fill: #111111; font: 8px 'DejaVu Sans'" transform="translate(471.305688 205.643445)">budget: token / latency constraint</text>
   </g>
   <g id="text_14">
    <!-- Topology Router  $r_θ$ -->
    <g style="fill: #cc79a7" transform="translate(471.305688 297.734286)">
     <text>
      <tspan style="font: 700 10.5px 'DejaVu Sans'" x="0 7.162354 14.375977 21.89209 29.105713 32.704834 39.918457 47.43457 54.279053 57.93457 66.019775 73.233398 80.708496 85.727783 92.849121 98.027344 101.682861" y="-0.015625">Topology Router  </tspan>
      <tspan style="font: oblique 10.5px 'DejaVu Sans'" x="105.338379" y="-0.015625">r</tspan>
      <tspan style="font: oblique 7.35px 'DejaVu Sans'" x="109.655273" y="1.7093749999999996">θ</tspan>
     </text>
    </g>
   </g>
   <g id="text_15">
    <!-- $m = r_θ(H_u, C_u, X_C, z_u, B)$ -->
    <g style="fill: #111111" transform="translate(471.305688 317.803228)">
     <text>
      <tspan style="font: oblique 8.6px 'DejaVu Sans'" x="0 18.920517 29.722041 44.637907 59.092195 73.820912 86.785561" y="-0.484375">mrHCXzB</tspan>
      <tspan style="font: 8.6px 'DejaVu Sans'" x="10.045624 26.369304 40.231932 54.68622 69.414937 82.379585 92.681175" y="-0.484375">=(,,,,)</tspan>
      <tspan style="font: oblique 6.02px 'DejaVu Sans'" x="22.45369 36.184138 50.638426 64.979417 78.331792" y="0.9265625000000002">θuuCu</tspan>
     </text>
    </g>
   </g>
   <g id="text_16">
    <text style="fill: #0072b2; font: 700 10.5px 'DejaVu Sans'; text-anchor: start" x="704.418134" y="126.335502" transform="rotate(-0 704.418134 126.335502)">Linear Protocol</text>
   </g>
   <g id="text_17">
    <!-- preference $→$ match $→$ rank -->
    <g style="fill: #111111" transform="translate(704.418134 146.255429)">
     <text>
      <tspan style="font: 8.4px 'DejaVu Sans'" x="0 5.32608 8.775742 13.937943 16.891861 22.054062 25.503723 30.665924 35.98381 40.597015 45.759216 48.426346 55.456772 58.123901 66.297379 71.439087 74.728958 79.342163 84.660049 87.327179 94.357605 97.024734 100.474396 105.616104 110.93399" y="-0.625">preference → match → rank</tspan>
     </text>
    </g>
   </g>
   <g id="text_18">
    <text style="fill: #009e73; font: 700 10.5px 'DejaVu Sans'; text-anchor: start" x="704.418134" y="202.352645" transform="rotate(-0 704.418134 202.352645)">Tree Protocol</text>
   </g>
   <g id="text_19">
    <text style="fill: #111111; font: 8.2px 'DejaVu Sans'" transform="translate(704.418134 222.11929)">split intents/aspects</text>
    <!-- branch compare $→$ aggregate -->
    <g style="fill: #111111" transform="translate(704.418134 231.489994)">
     <text>
      <tspan style="font: 8.2px 'DejaVu Sans'" x="0 5.197144 8.563293 13.580536 18.769684 23.27121 28.460358 31.062927 35.564453 40.5737 48.549316 53.74646 58.763702 62.129852 67.167084 69.769653 76.629883 79.232452 84.249695 89.446838 94.643982 98.010132 103.047363 108.244507 113.261749 116.471985" y="-0.78125">branch compare → aggregate</tspan>
     </text>
    </g>
   </g>
   <g id="text_20">
    <text style="fill: #a66a00; font: 700 10.5px 'DejaVu Sans'; text-anchor: start" x="704.418134" y="293.429788" transform="rotate(-0 704.418134 293.429788)">Graph Protocol</text>
   </g>
   <g id="text_21">
    <text style="fill: #111111; font: 8px 'DejaVu Sans'" transform="translate(704.418134 313.044464)">factor nodes + support/conflict edges</text>
    <text style="fill: #111111; font: 8px 'DejaVu Sans'" transform="translate(704.418134 322.185077)">message aggregation</text>
   </g>
   <g id="text_22">
    <text style="fill: #6b7280; font: 8.2px 'DejaVu Sans'; text-anchor: middle" x="780.70948" y="383.811259" transform="rotate(-0 780.70948 383.811259)">select or collapse under budget</text>
   </g>
   <g id="text_23">
    <text style="fill: #111111; font: 700 10.5px 'DejaVu Sans'; text-anchor: start" x="909.274526" y="204.504074" transform="rotate(-0 909.274526 204.504074)">Executor</text>
   </g>
   <g id="text_24">
    <text style="fill: #111111; font: 8.2px 'DejaVu Sans'" transform="translate(909.274526 224.270719)">structured reasoning</text>
    <text style="fill: #111111; font: 8.2px 'DejaVu Sans'" transform="translate(909.274526 233.639847)">score each candidate</text>
   </g>
   <g id="text_25">
    <text style="fill: #0072b2; font: 700 10.5px 'DejaVu Sans'; text-anchor: start" x="909.274526" y="324.266931" transform="rotate(-0 909.274526 324.266931)">Output</text>
   </g>
   <g id="text_26">
    <!-- ranking over $C_u$ -->
    <g style="fill: #111111" transform="translate(909.274526 343.958857)">
     <text>
      <tspan style="font: 8.1px 'DejaVu Sans'" x="0 3.327606 8.287399 13.41713 18.104233 20.352936 25.482666 30.6203 33.193069 38.144958 42.934814 47.914368 51.241974" y="-0.84375">ranking over </tspan>
      <tspan style="font: oblique 8.1px 'DejaVu Sans'" x="53.814743" y="-0.84375">C</tspan>
      <tspan style="font: oblique 5.67px 'DejaVu Sans'" x="59.466141" y="0.48281249999999964">u</tspan>
     </text>
    </g>
    <!-- $\hat{y}_u = \arg\max_{c\in C_u} s(c)$ -->
    <g style="fill: #111111" transform="translate(909.274526 354.825817)">
     <text>
      <tspan style="font: 8.1px 'DejaVu Sans'" x="5.478714 10.256002 18.614538 23.574331 26.901937 33.353647 41.237939 46.197732 55.2044 62.812051" y="-1.53125 -0.6281249999999998 -0.6281249999999998 -0.6281249999999998 -0.6281249999999998 -0.6281250000000007 -0.6281250000000007 -0.6281250000000007 -0.6281249999999998 -0.6281249999999998">̂=argmax()</tspan>
      <tspan style="font: oblique 8.1px 'DejaVu Sans'" x="0 50.987588 58.362069" y="-0.6281249999999998">ysc</tspan>
      <tspan style="font: oblique 5.67px 'DejaVu Sans'" x="4.867239 34.353647 42.403924" y="0.6984375000000007 5.199999999999999 5.199999999999999">ucC</tspan>
      <tspan style="font: 5.67px 'DejaVu Sans'" x="37.468634" y="5.199999999999999">∈</tspan>
      <tspan style="font: oblique 3.969px 'DejaVu Sans'" x="46.359903" y="6.1285937499999985">u</tspan>
     </text>
    </g>
   </g>
   <g id="text_27">
    <text style="fill: #6b7280; font: 700 10.5px 'DejaVu Sans'; text-anchor: start" x="273.513309" y="436.141217" transform="rotate(-0 273.513309 436.141217)">Training / Evaluation Signals</text>
   </g>
   <g id="text_28">
    <text style="fill: #111111; font: 8.4px 'DejaVu Sans'; text-anchor: start" x="273.513309" y="456.05983" transform="rotate(-0 273.513309 456.05983)">recommendation loss or NDCG reward  +  router oracle/regret supervision  +  cost regularization  +  optional verifier/reward-only item-attribute graph</text>
   </g>
   <g id="text_29">
    <text style="fill: #6b7280; font: 7.8px 'DejaVu Sans'; text-anchor: middle" x="642.961216" y="491.272312" transform="rotate(-0 642.961216 491.272312)">graph/verifier resources are not assumed as default online prompt inputs</text>
   </g>
   <g id="text_30">
    <text style="fill: #0072b2; font: 700 9.2px 'DejaVu Sans'; text-anchor: start" x="31.924047" y="75.715768" transform="rotate(-0 31.924047 75.715768)">1  Inputs</text>
   </g>
   <g id="text_31">
    <text style="fill: #cc79a7; font: 700 9.2px 'DejaVu Sans'; text-anchor: start" x="462.828872" y="75.715768" transform="rotate(-0 462.828872 75.715768)">2  Route</text>
   </g>
   <g id="text_32">
    <text style="fill: #e69f00; font: 700 9.2px 'DejaVu Sans'; text-anchor: start" x="695.941318" y="75.715768" transform="rotate(-0 695.941318 75.715768)">3  Reason</text>
   </g>
   <g id="text_33">
    <text style="fill: #0072b2; font: 700 9.2px 'DejaVu Sans'; text-anchor: start" x="900.797709" y="75.715768" transform="rotate(-0 900.797709 75.715768)">4  Rank</text>
   </g>
  </g>
 </g>
 <defs>
  <clipPath id="p5e39724499">
   <rect x="7.2" y="7.2" width="1045.474" height="502"/>
  </clipPath>
 </defs>
</svg>
